<?xml version="1.0" standalone="no"?>
<!DOCTYPE svg PUBLIC "-//W3C//DTD SVG 20010904//EN"
 "http://www.w3.org/TR/2001/REC-SVG-20010904/DTD/svg10.dtd">
<svg version="1.0" xmlns="http://www.w3.org/2000/svg"
 width="311.000000pt" height="311.000000pt" viewBox="0 0 311.000000 311.000000"
 preserveAspectRatio="xMidYMid meet">
<metadata>
Created by potrace 1.14, written by Peter Selinger 2001-2017
</metadata>
<g transform="translate(0.000000,311.000000) scale(0.100000,-0.100000)"
fill="#000000" stroke="none">
<path d="M1496 3102 c-4 -7 -3 -19 3 -26 6 -7 7 -16 3 -21 -4 -4 3 -4 15 -1
25 8 36 -4 21 -24 -8 -12 -9 -12 -4 2 4 14 0 17 -17 15 -12 -1 -22 4 -23 11
-3 25 -6 26 -15 7 -8 -17 -9 -16 -4 7 4 21 1 26 -13 23 -9 -2 -30 -4 -45 -4
-20 -1 -26 -5 -21 -13 5 -9 2 -9 -9 1 -15 12 -17 11 -17 -3 0 -9 -5 -16 -11
-16 -5 0 -8 4 -5 9 11 18 -27 4 -42 -15 -13 -17 -14 -17 -8 -1 5 15 2 17 -15
12 -12 -4 -27 -8 -33 -9 -32 -6 -177 -59 -181 -67 -4 -5 -15 -9 -26 -9 -10 0
-19 -4 -19 -10 0 -5 -6 -10 -14 -10 -24 0 -117 -51 -111 -61 3 -5 0 -6 -8 -3
-8 3 -22 -2 -31 -11 -9 -9 -16 -14 -16 -11 0 4 -31 -15 -70 -40 -38 -26 -70
-53 -70 -61 0 -8 -5 -11 -11 -8 -5 4 -21 -5 -34 -19 -13 -14 -27 -26 -31 -26
-11 0 -79 -73 -76 -82 1 -5 -1 -7 -6 -4 -14 9 -73 -59 -67 -76 4 -9 2 -19 -4
-23 -7 -4 -8 0 -4 11 4 12 2 15 -8 12 -8 -3 -13 -12 -13 -21 1 -9 -2 -15 -6
-12 -14 8 -41 -31 -34 -51 4 -14 3 -16 -4 -5 -8 11 -12 9 -23 -10 -7 -13 -12
-27 -11 -31 1 -5 -3 -7 -8 -5 -6 1 -18 -11 -28 -28 -9 -16 -25 -38 -34 -49
-10 -10 -15 -23 -12 -27 2 -4 0 -11 -6 -14 -12 -7 -83 -145 -75 -145 3 0 -2
-11 -10 -24 -15 -23 -15 -25 2 -36 15 -9 14 -10 -7 -4 -14 3 -22 3 -18 -1 3
-3 1 -21 -7 -38 -7 -18 -10 -38 -7 -46 3 -9 0 -11 -9 -6 -8 5 -11 5 -7 0 4 -4
3 -14 -3 -21 -15 -19 -1 -36 24 -29 19 5 20 5 4 -5 -9 -6 -22 -8 -27 -5 -9 5
-10 2 -10 -20 0 -3 -6 -21 -14 -40 -9 -20 -11 -37 -5 -40 9 -6 11 -4 13 18 1
16 29 16 32 -1 1 -7 0 -8 -3 -2 -2 5 -10 10 -16 10 -5 0 -7 -3 -4 -7 4 -3 2
-12 -5 -20 -9 -12 -6 -13 16 -9 14 3 24 1 21 -4 -3 -5 -18 -7 -33 -5 -25 3
-28 0 -30 -29 -1 -17 -4 -42 -7 -54 -4 -22 4 -27 35 -22 8 1 13 0 10 -2 -3 -2
-14 -10 -24 -18 -13 -10 -17 -10 -12 -2 4 6 3 12 -3 12 -18 0 -22 -20 -5 -27
16 -6 16 -7 -1 -20 -10 -7 -16 -16 -12 -19 4 -4 13 -2 20 4 8 7 17 8 21 4 5
-4 6 4 4 18 -2 21 1 25 22 27 21 2 22 1 5 -5 -11 -4 -20 -15 -20 -24 0 -10 -4
-18 -10 -19 -29 -2 -61 -69 -32 -69 4 0 5 -6 0 -12 -17 -27 -8 -63 21 -85 24
-19 26 -22 8 -20 -11 0 -20 5 -19 10 1 5 -2 11 -8 13 -5 2 -10 -12 -10 -31 0
-38 2 -40 25 -25 12 8 12 10 1 10 -8 0 -12 3 -8 6 3 3 11 3 17 -1 7 -4 2 -15
-15 -31 -14 -13 -23 -29 -19 -35 4 -7 8 -30 10 -53 2 -22 9 -43 14 -44 7 -3 7
-9 2 -15 -10 -14 25 -180 37 -173 4 3 8 -11 8 -31 1 -20 7 -39 15 -44 7 -5 10
-9 6 -9 -14 0 24 -89 41 -95 10 -3 18 -13 18 -21 0 -14 -2 -14 -14 2 -7 10
-13 13 -13 7 0 -7 7 -19 16 -27 8 -9 13 -16 9 -16 -3 0 10 -28 29 -62 19 -35
39 -63 44 -63 6 0 14 -4 19 -9 5 -5 3 -6 -5 -2 -18 11 -15 1 14 -41 14 -21 30
-37 35 -35 5 1 8 -1 8 -5 -4 -27 35 -78 51 -68 6 3 7 0 5 -7 -7 -18 112 -141
127 -132 7 5 8 3 4 -5 -9 -14 24 -42 39 -34 5 4 7 3 3 -2 -11 -11 65 -76 82
-69 8 3 11 2 7 -2 -8 -8 21 -44 36 -44 5 0 23 -11 39 -26 17 -14 37 -23 45
-20 8 3 11 1 8 -5 -4 -5 7 -15 24 -22 17 -6 31 -15 31 -19 0 -4 7 -8 16 -8 9
0 12 5 8 13 -4 7 -3 9 2 4 5 -5 9 -14 9 -20 0 -12 203 -99 215 -92 5 3 11 1
15 -5 3 -5 11 -10 16 -10 6 0 8 4 4 9 -3 5 0 13 6 17 7 4 9 3 6 -2 -12 -20 12
-36 56 -38 25 0 43 -4 41 -8 -5 -8 19 -16 81 -24 154 -20 295 -25 314 -10 11
8 13 8 7 -1 -4 -7 -3 -13 3 -13 5 0 12 6 14 13 4 9 6 9 6 0 1 -7 6 -13 12 -13
5 0 7 5 3 11 -4 8 -1 8 12 1 11 -5 30 -8 44 -6 89 12 105 16 112 27 6 9 8 9 8
0 0 -8 14 -8 52 2 28 8 55 12 59 9 4 -2 10 0 14 6 3 5 15 10 25 10 23 0 202
68 273 103 26 13 44 27 40 32 -5 4 -2 5 4 1 17 -9 56 12 50 28 -3 7 1 13 9 13
7 0 10 -5 7 -11 -4 -6 9 0 28 12 18 12 33 26 32 31 -1 5 5 8 15 7 9 0 16 4 15
11 -2 7 3 10 10 8 6 -3 26 8 44 23 18 15 41 34 51 42 51 39 112 99 112 110 0
6 5 8 10 5 6 -3 10 -3 10 2 0 4 18 27 40 51 21 23 37 42 35 42 -3 0 5 10 17
22 21 21 21 22 2 29 -10 3 -25 1 -33 -5 -12 -9 -13 -8 -7 3 12 19 -62 7 -112
-18 -48 -25 -114 -89 -105 -104 3 -5 1 -7 -5 -3 -5 3 -34 -19 -63 -49 -30 -31
-69 -66 -89 -78 -19 -11 -37 -23 -40 -26 -3 -4 -9 -7 -15 -8 -5 -2 -37 -12
-70 -24 -110 -38 -223 -22 -318 47 -27 20 -47 37 -45 39 2 2 39 -5 83 -16 94
-23 213 -27 272 -9 50 15 108 61 129 102 15 29 15 31 -2 24 -19 -7 -150 -8
-194 -1 -62 9 -173 36 -260 63 -168 52 -316 61 -423 25 -70 -24 -235 -104
-310 -150 -35 -22 -42 -23 -75 -12 -145 48 -344 173 -465 293 -89 89 -147 153
-147 163 0 3 -11 20 -24 37 -13 17 -36 56 -52 86 -15 30 -32 58 -37 61 -5 3
-8 8 -7 10 4 11 -13 59 -22 59 -5 0 -7 4 -4 8 3 5 -3 31 -13 58 -11 27 -21 63
-24 79 -3 17 -10 51 -16 78 -6 26 -12 65 -13 87 -1 22 -4 40 -7 40 -7 0 -4
242 3 305 7 58 21 133 31 166 4 11 1 27 -6 35 -10 12 -9 13 6 7 14 -5 17 -3
12 10 -3 9 -3 17 2 17 8 0 34 77 31 94 -1 5 2 12 7 15 5 3 26 39 46 80 21 41
57 101 80 134 23 33 47 67 52 75 6 9 20 26 32 38 13 11 23 24 23 27 0 8 145
148 185 178 17 13 32 26 35 29 3 3 12 10 21 15 9 6 43 28 75 50 33 22 74 47
92 54 17 7 32 18 32 24 0 6 3 8 6 4 3 -3 27 5 52 18 26 12 64 29 84 36 20 7
35 16 32 21 -3 4 5 6 18 4 13 -2 28 0 33 4 6 4 24 10 40 13 17 4 64 14 105 23
41 9 118 18 170 20 52 2 94 7 93 12 -1 5 4 9 12 9 7 0 11 -5 9 -12 -3 -6 6
-11 21 -11 17 0 24 4 21 13 -3 7 -1 13 4 13 6 0 10 -7 10 -15 0 -9 9 -15 23
-14 26 1 106 -10 125 -16 6 -2 12 1 12 8 0 8 3 9 8 1 12 -18 62 -26 79 -13 11
10 14 10 11 -1 -2 -8 2 -15 7 -15 6 -1 17 -4 25 -7 54 -20 162 -51 175 -51 8
0 15 -4 15 -9 0 -14 22 -9 44 10 21 17 21 17 2 -5 -19 -22 -18 -23 10 -33 51
-20 98 -44 140 -72 23 -15 45 -28 48 -28 26 0 231 -171 315 -262 32 -34 47
-44 53 -36 6 10 8 10 8 0 0 -7 5 -10 12 -6 7 4 8 3 4 -5 -4 -6 -12 -9 -17 -6
-5 4 -9 2 -9 -4 0 -17 22 -24 31 -10 5 8 9 10 9 4 0 -5 4 -4 9 4 11 17 3 43
-10 35 -5 -3 -9 2 -9 11 0 20 -49 81 -62 77 -5 -1 -7 1 -4 6 7 12 -58 74 -68
65 -4 -5 -6 -1 -4 7 2 8 -3 14 -10 12 -8 -1 -11 2 -8 7 3 5 -15 26 -41 47 -25
22 -52 44 -58 51 -7 7 -15 9 -19 6 -3 -4 -6 2 -6 11 0 13 -5 16 -17 12 -10 -4
-14 -4 -11 0 9 9 -76 74 -96 74 -9 0 -16 4 -16 9 0 13 -103 71 -124 71 -11 0
-14 5 -10 12 5 8 2 9 -9 5 -10 -3 -17 -2 -17 4 0 6 -4 7 -10 4 -5 -3 -10 -2
-10 3 0 8 -22 19 -40 19 -3 0 -24 10 -47 21 -24 13 -49 19 -59 15 -12 -4 -15
-3 -10 5 5 8 -1 12 -16 12 -13 0 -28 4 -34 10 -5 5 -21 11 -34 14 -14 2 -25 5
-25 6 0 1 -10 3 -22 6 -14 2 -23 -1 -24 -9 0 -6 -4 -3 -9 8 -6 13 -9 15 -9 5
-1 -13 -2 -13 -11 0 -9 13 -11 13 -20 0 -8 -13 -10 -12 -10 4 0 20 -15 13 -15
-7 0 -7 -11 -11 -23 -10 -15 2 -21 -1 -16 -9 4 -7 3 -8 -5 -4 -17 11 -2 28 18
21 12 -3 18 0 18 10 0 9 -6 14 -13 11 -8 -3 -16 -1 -19 4 -7 11 -45 9 -45 -3
0 -5 9 -7 20 -4 11 3 18 1 14 -4 -10 -17 -36 -9 -41 12 -4 16 -8 17 -14 7 -6
-8 -9 -9 -9 -1 0 6 -8 10 -17 9 -10 -2 -31 0 -48 4 -26 6 -33 3 -42 -16 -7
-15 -7 -26 0 -33 6 -6 4 -9 -6 -7 -25 3 -29 12 -12 26 8 7 15 19 15 27 0 12
-4 11 -17 -4 -10 -10 -14 -13 -9 -6 10 15 10 15 -96 17 -43 0 -78 -3 -78 -7 0
-4 15 -14 33 -22 17 -8 27 -14 20 -15 -23 0 -62 23 -65 39 -3 12 -5 13 -12 3z
m141 -54 c4 1 8 -3 8 -10 0 -6 -6 -12 -13 -14 -7 -1 -8 0 -2 3 5 2 10 9 10 14
0 6 -5 7 -11 4 -6 -4 -13 2 -16 14 -3 11 -9 18 -14 15 -5 -3 -6 3 -2 13 6 14
9 13 19 -12 7 -17 16 -29 21 -27z m13 48 c0 -3 -4 -8 -10 -11 -5 -3 -10 -1
-10 4 0 6 5 11 10 11 6 0 10 -2 10 -4z m135 -16 c4 -6 -1 -7 -11 -3 -10 4 -15
2 -11 -3 3 -6 -4 -11 -16 -11 -21 -2 -22 -1 -3 13 23 17 33 18 41 4z m-345
-10 c8 -5 12 -11 10 -14 -3 -2 -14 2 -24 10 -22 15 -10 19 14 4z m230 0 c0 -5
-4 -10 -10 -10 -5 0 -10 5 -10 10 0 6 5 10 10 10 6 0 10 -4 10 -10z m178 -25
c-3 -3 -9 2 -12 12 -6 14 -5 15 5 6 7 -7 10 -15 7 -18z m-497 -6 c6 -13 7 -19
1 -15 -6 3 -12 1 -14 -6 -3 -7 -7 -5 -11 6 -5 11 -3 15 5 10 8 -5 9 -2 5 9 -9
24 0 21 14 -4z m71 6 c0 -5 8 -16 17 -23 14 -11 14 -11 -3 -5 -14 5 -17 3 -11
-7 5 -8 4 -11 -3 -6 -6 3 -9 15 -7 26 3 13 -2 18 -16 17 -10 -1 -19 -6 -19
-11 0 -5 -3 -7 -6 -3 -3 3 -3 10 0 15 7 12 46 10 48 -3z m183 -25 c1 -17 0
-28 -3 -25 -3 3 -7 19 -8 36 -2 17 0 28 3 25 3 -3 7 -19 8 -36z m226 19 c6
-12 4 -19 -5 -22 -9 -4 -12 0 -9 12 3 11 -2 17 -17 18 -11 1 -18 -2 -15 -7 3
-5 -3 -14 -14 -19 -30 -16 -40 -12 -11 4 14 8 21 14 17 15 -5 0 -6 4 -2 9 9
15 46 8 56 -10z m-537 -5 c6 -15 4 -15 -11 -3 -10 7 -20 15 -22 16 -2 2 3 3
11 3 9 0 19 -7 22 -16z m391 6 c3 -5 1 -10 -4 -10 -6 0 -11 5 -11 10 0 6 2 10
4 10 3 0 8 -4 11 -10z m370 -19 c-6 -5 -25 10 -25 20 0 5 6 4 14 -3 8 -7 12
-15 11 -17z m-810 0 c-3 -6 -11 -11 -16 -11 -5 0 -4 6 3 14 14 16 24 13 13 -3z
m240 0 c-3 -6 -11 -11 -16 -11 -5 0 -4 6 3 14 14 16 24 13 13 -3z m78 -1 c-10
-11 -19 -20 -21 -20 -1 0 2 9 8 20 6 11 15 20 20 20 6 0 2 -9 -7 -20z m322 10
c3 -5 2 -10 -4 -10 -5 0 -13 5 -16 10 -3 6 -2 10 4 10 5 0 13 -4 16 -10z m98
-36 c-3 -8 -7 -14 -10 -14 -3 0 -3 6 0 14 3 8 -1 17 -9 20 -8 3 -14 10 -14 16
0 5 9 2 19 -7 11 -9 17 -22 14 -29z m17 36 c8 -5 12 -11 10 -14 -3 -2 -14 2
-24 10 -22 15 -10 19 14 4z m98 -15 c-3 -3 -9 2 -12 12 -6 14 -5 15 5 6 7 -7
10 -15 7 -18z m-888 11 c0 -2 -6 -9 -14 -15 -11 -9 -16 -9 -22 0 -4 8 -3 9 4
5 7 -4 12 -2 12 3 0 6 5 11 10 11 6 0 10 -2 10 -4z m70 -10 c0 -2 -7 -7 -16
-10 -8 -3 -12 -2 -9 4 6 10 25 14 25 6z m46 -34 c-2 -9 -8 -17 -15 -18 -6 -1
-7 0 -2 2 5 3 7 17 5 32 -3 19 -2 23 5 13 5 -7 8 -21 7 -29z m55 15 c-8 -8
-14 -7 -23 2 -11 10 -9 11 6 5 15 -6 17 -4 11 6 -6 9 -4 11 4 5 9 -5 10 -10 2
-18z m142 5 c15 -16 15 -18 -2 -18 -12 0 -17 5 -13 15 4 10 1 12 -8 6 -9 -5
-11 -4 -6 3 9 15 10 15 29 -6z m421 9 c4 -5 -3 -7 -14 -4 -23 6 -26 13 -6 13
8 0 17 -4 20 -9z m196 -7 c0 -2 -7 -4 -15 -4 -8 0 -15 4 -15 10 0 5 7 7 15 4
8 -4 15 -8 15 -10z m-270 -20 c0 -2 -9 0 -20 6 -11 6 -20 13 -20 16 0 2 9 0
20 -6 11 -6 20 -13 20 -16z m33 6 c3 -11 1 -18 -4 -14 -5 3 -9 12 -9 20 0 20
7 17 13 -6z m-663 -5 c19 -22 8 -25 -12 -3 -10 10 -14 18 -9 18 5 0 14 -7 21
-15z m241 -2 c13 -17 13 -17 -6 -3 -11 8 -22 16 -24 17 -2 2 0 3 6 3 6 0 17
-8 24 -17z m99 7 c0 -5 -5 -10 -11 -10 -5 0 -7 5 -4 10 3 6 8 10 11 10 2 0 4
-4 4 -10z m355 0 c3 -6 -1 -7 -9 -4 -18 7 -21 14 -7 14 6 0 13 -4 16 -10z
m111 -3 c4 -3 -3 -5 -14 -2 -13 2 -26 -3 -32 -13 -5 -9 -10 -12 -10 -6 0 25
38 40 56 21z m-962 -19 c-5 -7 -2 -9 8 -5 17 6 19 -16 3 -30 -4 -4 -5 -3 -2 3
4 7 0 15 -9 18 -13 5 -12 26 2 26 3 0 2 -5 -2 -12z m123 6 c-3 -3 -12 -4 -19
-1 -8 3 -5 6 6 6 11 1 17 -2 13 -5z m248 -4 c-3 -5 -12 -10 -18 -10 -7 0 -6 4
3 10 19 12 23 12 15 0z m666 -13 c-8 -8 -14 -7 -23 2 -11 10 -9 11 6 5 15 -6
17 -4 11 6 -6 9 -4 11 4 5 9 -5 10 -10 2 -18z m102 -7 c3 -11 1 -18 -4 -14 -5
3 -9 12 -9 20 0 20 7 17 13 -6z m27 0 c0 -5 -2 -10 -4 -10 -3 0 -8 5 -11 10
-3 6 -1 10 4 10 6 0 11 -4 11 -10z m-1240 -4 c0 -2 -8 -10 -17 -17 -16 -13
-17 -12 -4 4 13 16 21 21 21 13z m1212 -30 c3 3 8 1 12 -4 11 -18 -25 -8 -41
12 -18 21 -18 21 3 3 11 -9 23 -14 26 -11z m71 7 c-4 -10 -9 -11 -19 -2 -18
15 -18 15 5 15 11 0 17 -5 14 -13z m-1266 -6 c0 -8 -6 -14 -14 -14 -9 0 -10 4
-2 14 6 7 12 13 14 13 1 0 2 -6 2 -13z m-57 -9 c0 -6 -3 -8 -7 -5 -3 4 -13 1
-22 -6 -14 -11 -14 -10 -2 6 15 20 31 22 31 5z m115 -18 c3 -5 1 -10 -4 -10
-6 0 -11 5 -11 10 0 6 2 10 4 10 3 0 8 -4 11 -10z m40 -8 c-3 -3 -11 0 -18 7
-9 10 -8 11 6 5 10 -3 15 -9 12 -12z m1205 12 c0 -8 -19 -13 -24 -6 -3 5 1 9
9 9 8 0 15 -2 15 -3z m-1347 -19 c-3 -9 -8 -14 -10 -11 -3 3 -2 9 2 15 9 16
15 13 8 -4z m-82 -18 c-10 -9 -11 -8 -5 6 3 10 9 15 12 12 3 -3 0 -11 -7 -18z
m1553 12 c3 -3 -6 -5 -19 -5 -14 0 -25 4 -25 8 0 8 36 6 44 -3z m-83 -16 c13
-16 12 -17 -3 -4 -10 7 -18 15 -18 17 0 8 8 3 21 -13z m120 0 c13 -16 12 -17
-3 -4 -17 13 -22 21 -14 21 2 0 10 -8 17 -17z m-1610 -30 c13 -16 12 -17 -3
-4 -10 7 -18 15 -18 17 0 8 8 3 21 -13z m106 -8 c0 -8 -4 -12 -9 -9 -5 3 -6
10 -3 15 9 13 12 11 12 -6z m1534 -12 c13 -16 12 -17 -3 -4 -10 7 -18 15 -18
17 0 8 8 3 21 -13z m-1621 -8 c0 -2 -6 -8 -13 -14 -10 -8 -14 -7 -14 2 0 8 6
14 14 14 7 0 13 -1 13 -2z m1667 -10 c0 -8 -4 -12 -9 -9 -4 3 -8 9 -8 15 0 5
4 9 8 9 5 0 9 -7 9 -15z m38 -23 c-3 -3 -11 0 -18 7 -9 10 -8 11 6 5 10 -3 15
-9 12 -12z m-1858 -27 c0 -8 -4 -12 -9 -9 -5 3 -6 10 -3 15 9 13 12 11 12 -6z
m1868 -5 c-3 -5 -12 -10 -18 -10 -7 0 -6 4 3 10 19 12 23 12 15 0z m-2025
-114 c0 -3 -4 -8 -10 -11 -5 -3 -10 -1 -10 4 0 6 5 11 10 11 6 0 10 -2 10 -4z
m2187 -2 c-3 -3 -12 -4 -19 -1 -8 3 -5 6 6 6 11 1 17 -2 13 -5z m53 -40 c0 -2
-8 0 -18 5 -13 7 -23 6 -32 -2 -12 -10 -12 -9 -1 5 10 14 18 15 32 7 10 -5 19
-12 19 -15z m15 -23 c-3 -2 1 -11 7 -20 10 -12 7 -12 -8 2 -11 9 -23 14 -26
11 -3 -3 -8 -1 -11 3 -3 5 5 9 18 9 14 0 22 -2 20 -5z m45 -35 c0 -3 -4 -8
-10 -11 -5 -3 -10 -1 -10 4 0 6 5 11 10 11 6 0 10 -2 10 -4z m20 -20 c0 -2 -7
-7 -16 -10 -8 -3 -12 -2 -9 4 6 10 25 14 25 6z m-2444 -82 c1 -9 0 -13 -4 -10
-3 4 -7 14 -8 22 -1 9 0 13 4 10 3 -4 7 -14 8 -22z m-46 -84 c-8 -5 -19 -10
-25 -10 -5 0 -3 5 5 10 8 5 20 10 25 10 6 0 3 -5 -5 -10z m-10 -40 c0 -5 -2
-10 -4 -10 -3 0 -8 5 -11 10 -3 6 -1 10 4 10 6 0 11 -4 11 -10z m-75 -20 c-3
-5 -12 -10 -18 -10 -7 0 -6 4 3 10 19 12 23 12 15 0z m-47 -25 c-3 -3 -9 2
-12 12 -6 14 -5 15 5 6 7 -7 10 -15 7 -18z m42 1 c0 -2 -8 -10 -17 -17 -16
-13 -17 -12 -4 4 13 16 21 21 21 13z m-63 -21 c0 -8 -4 -12 -9 -9 -5 3 -6 10
-3 15 9 13 12 11 12 -6z m-26 -52 c-12 -20 -14 -14 -5 12 4 9 9 14 11 11 3 -2
0 -13 -6 -23z m143 -2 c3 -5 -2 -15 -12 -22 -15 -12 -16 -12 -5 2 7 9 10 19 6
22 -3 4 -4 7 0 7 3 0 8 -4 11 -9z m-141 -34 c3 -8 -1 -14 -8 -14 -7 0 -11 6
-8 14 3 7 6 13 8 13 2 0 5 -6 8 -13z m18 -40 c-10 -9 -11 -8 -5 6 3 10 9 15
12 12 3 -3 0 -11 -7 -18z m124 13 c3 -5 1 -10 -4 -10 -6 0 -11 5 -11 10 0 6 2
10 4 10 3 0 8 -4 11 -10z m-110 -39 c-9 -8 -36 -10 -30 -2 2 4 11 8 20 8 8 0
13 -3 10 -6z m-25 -66 c0 -5 -5 -3 -10 5 -5 8 -10 20 -10 25 0 6 5 3 10 -5 5
-8 10 -19 10 -25z m-43 -17 c-3 -8 -6 -5 -6 6 -1 11 2 17 5 13 3 -3 4 -12 1
-19z m20 -10 c-3 -8 -6 -5 -6 6 -1 11 2 17 5 13 3 -3 4 -12 1 -19z m116 7 c4
-8 3 -16 -1 -19 -4 -3 -9 4 -9 15 -2 23 3 25 10 4z m-173 -5 c0 -5 -5 -10 -11
-10 -5 0 -7 5 -4 10 3 6 8 10 11 10 2 0 4 -4 4 -10z m119 -37 c2 -1 -5 -1 -16
0 -11 0 -20 7 -20 14 0 10 4 10 16 1 9 -7 18 -13 20 -15z m-89 -7 c0 -2 -7 -7
-16 -10 -8 -3 -12 -2 -9 4 6 10 25 14 25 6z m-15 -35 c3 -5 0 -13 -6 -17 -7
-4 -9 -3 -5 4 3 6 -3 12 -16 15 -23 4 -23 4 -1 6 12 0 24 -3 28 -8z m22 -26
c0 -8 -4 -12 -9 -9 -5 3 -6 10 -3 15 9 13 12 11 12 -6z m77 -11 c3 -8 2 -12
-4 -9 -6 3 -10 10 -10 16 0 14 7 11 14 -7z m-9 -33 c-3 -2 -16 -6 -28 -8 -15
-2 -18 0 -9 5 14 9 45 12 37 3z m-68 -38 c0 -14 -1 -14 -12 1 -7 8 -16 12 -20
8 -5 -4 -5 -2 -1 5 9 16 33 6 33 -14z m-66 -13 c5 0 9 -5 9 -11 0 -8 -5 -8
-15 1 -8 7 -14 20 -14 29 1 13 2 13 6 -1 2 -10 9 -18 14 -18z m49 -7 c0 -1 -5
-5 -12 -9 -6 -4 -8 -3 -5 3 4 6 0 13 -8 17 -8 3 -15 10 -15 16 0 5 9 2 20 -7
11 -10 20 -18 20 -20z m-63 -35 c-3 -8 -6 -5 -6 6 -1 11 2 17 5 13 3 -3 4 -12
1 -19z m43 2 c0 -5 -4 -10 -10 -10 -5 0 -10 5 -10 10 0 6 5 10 10 10 6 0 10
-4 10 -10z m56 -29 c0 -14 -4 -17 -12 -11 -6 6 -14 7 -17 3 -4 -3 -7 -1 -7 5
0 6 8 13 18 15 9 3 17 5 17 6 1 0 1 -8 1 -18z m79 -3 c4 -4 -1 -5 -12 -4 -10
2 -23 0 -29 -5 -6 -5 -11 -4 -11 5 0 13 40 16 52 4z m-115 -32 c0 -2 -7 -7
-16 -10 -8 -3 -12 -2 -9 4 6 10 25 14 25 6z m55 -5 c3 -5 2 -12 -3 -15 -5 -3
-9 1 -9 9 0 17 3 19 12 6z m65 3 c0 -8 -19 -13 -24 -6 -3 5 1 9 9 9 8 0 15 -2
15 -3z m-100 -49 c0 -5 -5 -3 -10 5 -5 8 -10 20 -10 25 0 6 5 3 10 -5 5 -8 10
-19 10 -25z m-43 -6 c-16 -22 -16 -22 -14 -1 0 11 5 18 9 16 4 -3 8 0 8 7 0 7
3 10 6 6 3 -3 -1 -16 -9 -28z m-43 -3 c-10 -8 -21 -12 -24 -10 -5 6 21 24 34
24 6 0 1 -6 -10 -14z m72 -8 c5 -7 3 -8 -6 -3 -10 6 -12 4 -6 -11 5 -14 4 -16
-5 -7 -6 6 -8 16 -5 22 9 14 13 14 22 -1z m-56 -18 c0 -5 -4 -10 -10 -10 -5 0
-10 5 -10 10 0 6 5 10 10 10 6 0 10 -4 10 -10z m74 -16 c3 -8 2 -12 -4 -9 -6
3 -10 10 -10 16 0 14 7 11 14 -7z m-44 -4 c0 -5 -4 -10 -10 -10 -5 0 -10 5
-10 10 0 6 5 10 10 10 6 0 10 -4 10 -10z m77 3 c-4 -3 -1 -13 6 -22 11 -14 10
-14 -5 -2 -16 12 -16 31 -1 31 4 0 3 -3 0 -7z m-102 -42 c-3 -6 -11 -9 -16 -6
-5 4 -9 2 -9 -4 0 -15 18 -23 25 -11 3 5 11 10 18 10 6 0 2 -7 -9 -16 -17 -14
-17 -15 -1 -10 12 4 16 2 11 -6 -5 -8 -1 -9 12 -4 15 6 17 5 7 -5 -10 -10 -18
-9 -40 8 -29 21 -38 50 -15 46 6 -2 12 1 12 5 0 17 -14 21 -29 9 -14 -11 -14
-10 -2 6 13 16 16 16 29 3 8 -8 11 -19 7 -25z m71 2 c-6 -6 -36 9 -36 18 0 5
9 4 20 -3 10 -7 18 -14 16 -15z m46 -15 c-14 -14 -44 -20 -36 -7 3 5 9 7 14 4
5 -3 11 -1 15 5 3 5 9 10 13 10 3 0 1 -5 -6 -12z m-55 -13 c0 -8 -4 -12 -9 -9
-5 3 -6 10 -3 15 9 13 12 11 12 -6z m0 -40 c0 -18 -24 -28 -33 -13 -4 6 -3 8
3 5 6 -4 13 0 17 8 7 19 13 19 13 0z m44 -18 c-6 -8 -8 -16 -5 -20 3 -3 -2 -4
-13 -3 -10 2 -25 -2 -33 -8 -13 -10 -13 -9 -1 6 7 10 17 16 21 13 4 -3 13 2
20 10 7 8 15 15 17 15 3 0 0 -6 -6 -13z m-86 -7 c3 -5 1 -10 -4 -10 -6 0 -11
5 -11 10 0 6 2 10 4 10 3 0 8 -4 11 -10z m5 -30 c-8 -5 -17 -7 -21 -4 -4 2 -7
-5 -6 -16 1 -12 6 -19 14 -16 7 3 13 1 13 -5 0 -19 -33 -5 -36 15 -4 26 0 31
28 33 17 2 19 0 8 -7z m-53 -32 c-3 -8 -6 -5 -6 6 -1 11 2 17 5 13 3 -3 4 -12
1 -19z m73 12 c0 -5 -2 -10 -4 -10 -3 0 -8 5 -11 10 -3 6 -1 10 4 10 6 0 11
-4 11 -10z m61 -23 c-6 -8 -8 -16 -5 -20 3 -3 -2 -4 -12 -3 -10 2 -20 9 -22
17 -3 11 -2 11 6 1 7 -10 11 -10 22 3 7 8 15 15 17 15 3 0 0 -6 -6 -13z m-51
-22 c14 -19 14 -19 -2 -6 -10 7 -18 18 -18 24 0 6 1 8 3 6 1 -2 9 -13 17 -24z
m-72 -12 c0 -15 5 -29 11 -31 6 -2 11 -9 11 -15 0 -16 -28 14 -30 33 -3 20 -1
40 4 40 2 0 4 -12 4 -27z m39 1 c-3 -3 -12 -4 -19 -1 -8 3 -5 6 6 6 11 1 17
-2 13 -5z m35 -18 c6 4 5 -2 -1 -15 -13 -24 -17 -25 -27 -9 -5 7 -3 8 6 3 9
-5 11 -1 6 16 -3 13 -3 18 0 11 3 -6 10 -9 16 -6z m125 -11 c0 -8 -4 -12 -9
-9 -5 3 -6 10 -3 15 9 13 12 11 12 -6z m-76 -18 c-6 -8 -9 -16 -6 -18 2 -3 -5
-5 -15 -6 -11 -1 -20 3 -20 8 0 6 4 8 9 5 5 -3 14 1 21 9 7 8 15 15 17 15 3 0
0 -6 -6 -13z m-89 -29 c-7 -7 -12 -8 -12 -2 0 14 12 26 19 19 2 -3 -1 -11 -7
-17z m38 -2 c0 -2 -7 -7 -16 -10 -8 -3 -12 -2 -9 4 6 10 25 14 25 6z m-50 -26
c0 -5 -4 -10 -10 -10 -5 0 -10 5 -10 10 0 6 5 10 10 10 6 0 10 -4 10 -10z m56
-2 c4 -7 4 -10 -1 -6 -4 4 -14 0 -22 -10 -13 -15 -13 -15 -3 6 12 25 16 27 26
10z m119 -6 c-3 -3 -11 0 -18 7 -9 10 -8 11 6 5 10 -3 15 -9 12 -12z m-36 -36
c-3 -3 -11 5 -18 17 -13 21 -12 21 5 5 10 -10 16 -20 13 -22z m-125 8 c3 -8 2
-12 -4 -9 -6 3 -10 1 -10 -6 0 -7 -2 -10 -5 -7 -5 5 4 38 10 38 2 0 6 -7 9
-16z m75 -20 c-6 -8 -14 -14 -16 -14 -3 0 1 8 8 17 12 14 12 16 -2 11 -9 -4
-16 -1 -16 7 0 11 5 11 19 4 15 -8 17 -13 7 -25z m-29 -11 c0 -3 -6 -3 -12 0
-7 2 -21 -8 -30 -22 -16 -23 -17 -24 -15 -4 0 12 4 20 8 17 4 -2 9 3 13 11 5
13 36 11 36 -2z m60 3 c0 -2 -8 -10 -17 -17 -16 -13 -17 -12 -4 4 13 16 21 21
21 13z m60 -16 c0 -5 -2 -10 -4 -10 -3 0 -8 5 -11 10 -3 6 -1 10 4 10 6 0 11
-4 11 -10z m-147 -27 c-4 -10 -2 -14 5 -9 6 4 16 -3 22 -16 11 -22 10 -22 -4
-4 -9 11 -16 16 -16 11 0 -5 -5 -4 -11 2 -6 6 -8 16 -5 22 11 17 16 13 9 -6z
m68 -36 c-6 -8 -8 -16 -5 -19 3 -3 1 -9 -4 -12 -6 -3 -9 0 -8 6 2 16 15 38 23
38 3 0 0 -6 -6 -13z m-35 -34 c-6 -6 -36 9 -36 18 0 5 9 4 20 -3 10 -7 18 -14
16 -15z m47 -18 c-3 -9 -8 -14 -10 -11 -3 3 -2 9 2 15 9 16 15 13 8 -4z m45
-10 c-3 -3 -9 2 -12 12 -6 14 -5 15 5 6 7 -7 10 -15 7 -18z m-19 -42 c2 -1 -5
-1 -16 0 -11 0 -20 7 -20 14 0 10 4 10 16 1 9 -7 18 -13 20 -15z m-21 -38 c-3
-3 -9 2 -12 12 -6 14 -5 15 5 6 7 -7 10 -15 7 -18z m33 -8 c-10 -9 -11 -8 -5
6 3 10 9 15 12 12 3 -3 0 -11 -7 -18z m9 -27 c0 -5 -5 -10 -11 -10 -5 0 -7 5
-4 10 3 6 8 10 11 10 2 0 4 -4 4 -10z m35 -20 c3 -5 1 -10 -4 -10 -6 0 -11 5
-11 10 0 6 2 10 4 10 3 0 8 -4 11 -10z m-35 -59 c0 -6 -4 -12 -8 -15 -5 -3 -9
1 -9 9 0 8 4 15 9 15 4 0 8 -4 8 -9z m145 -41 c-3 -5 -12 -10 -18 -10 -7 0 -6
4 3 10 19 12 23 12 15 0z m-65 -54 c0 -3 -4 -8 -10 -11 -5 -3 -10 -1 -10 4 0
6 5 11 10 11 6 0 10 -2 10 -4z m95 -34 c-3 -3 -11 0 -18 7 -9 10 -8 11 6 5 10
-3 15 -9 12 -12z m922 -547 c0 -8 -4 -12 -9 -9 -5 3 -6 10 -3 15 9 13 12 11
12 -6z m-172 -5 c-3 -5 -12 -10 -18 -10 -7 0 -6 4 3 10 19 12 23 12 15 0z
m271 -56 c1 -9 0 -13 -4 -10 -3 4 -7 14 -8 22 -1 9 0 13 4 10 3 -4 7 -14 8
-22z m40 11 c-1 -8 -5 -17 -8 -21 -5 -4 -4 16 1 34 3 9 9 -1 7 -13z m348 7 c3
-5 -1 -9 -9 -9 -8 0 -12 4 -9 9 3 4 7 8 9 8 2 0 6 -4 9 -8z m96 2 c0 -8 -19
-13 -24 -6 -3 5 1 9 9 9 8 0 15 -2 15 -3z m-765 -24 c3 -5 1 -10 -4 -10 -6 0
-11 5 -11 10 0 6 2 10 4 10 3 0 8 -4 11 -10z m40 0 c3 -5 1 -10 -4 -10 -6 0
-11 5 -11 10 0 6 2 10 4 10 3 0 8 -4 11 -10z m465 -5 c0 -2 -9 -3 -19 -2 -11
0 -18 5 -15 9 4 6 34 0 34 -7z m-85 -14 c3 -5 2 -12 -3 -15 -5 -3 -9 1 -9 9 0
17 3 19 12 6z m359 1 c3 -5 -1 -9 -9 -9 -8 0 -12 4 -9 9 3 4 7 8 9 8 2 0 6 -4
9 -8z m-660 -21 c-8 -8 -43 -8 -38 0 2 4 13 7 24 6 10 -1 17 -3 14 -6z m471
-1 c3 -6 -1 -7 -9 -4 -18 7 -21 14 -7 14 6 0 13 -4 16 -10z"/>
<path d="M1644 2891 c-2 -2 -30 -6 -61 -8 -32 -2 -65 -6 -73 -10 -22 -9 -27
-10 -56 -12 -16 -1 -23 -5 -18 -13 4 -7 3 -8 -4 -4 -14 8 -93 -11 -152 -37
-25 -11 -47 -21 -50 -22 -17 -4 -113 -54 -155 -79 -124 -75 -314 -245 -370
-330 -17 -25 -17 -27 0 -40 15 -11 29 -1 115 84 53 53 124 114 156 135 33 22
61 42 64 46 3 3 21 13 40 22 19 10 54 29 77 42 41 22 204 83 247 91 12 2 32 6
46 9 58 12 78 16 125 21 120 14 305 2 393 -25 17 -5 32 -7 32 -4 0 3 6 1 13
-4 6 -6 30 -16 52 -23 61 -19 208 -95 277 -143 33 -23 104 -85 157 -137 53
-52 99 -94 103 -92 5 1 7 -1 7 -6 -3 -17 2 -29 19 -48 44 -50 136 -237 153
-312 7 -29 15 -52 18 -52 3 0 7 -17 8 -38 1 -46 6 -74 16 -88 3 -6 4 -13 2
-16 -3 -2 -7 -72 -11 -154 -7 -188 -7 -193 -16 -187 -5 2 -8 -6 -8 -18 0 -54
-70 -220 -134 -319 -26 -41 -84 -110 -127 -153 -44 -42 -79 -80 -79 -82 0 -3
19 4 42 16 25 13 72 24 123 28 45 5 87 11 93 14 5 4 34 10 63 13 57 6 68 14
98 67 14 26 17 37 8 41 -7 2 -5 5 5 5 13 1 22 14 43 71 1 3 5 12 8 20 43 104
48 144 15 124 -7 -5 -8 -3 -4 5 5 7 14 10 21 7 18 -7 29 42 14 60 -9 12 -9 13
3 9 8 -3 15 0 16 7 0 7 3 37 7 66 4 34 2 52 -4 48 -5 -4 -13 -2 -16 4 -4 6 -3
10 2 9 25 -4 28 8 30 102 0 63 -2 97 -8 88 -6 -9 -9 -10 -9 -2 0 6 4 14 8 17
11 7 3 67 -12 85 -8 12 -8 13 2 7 10 -6 12 -1 8 21 -2 15 -5 33 -5 39 -1 7
-14 10 -31 9 -17 -1 -28 0 -25 4 4 3 15 7 26 7 10 1 21 2 23 3 4 1 -5 39 -25
111 -5 19 -12 42 -14 50 -2 8 -4 16 -5 18 -2 1 -3 5 -5 10 -14 50 -90 200
-108 213 -5 3 -9 10 -10 15 -1 5 -6 8 -10 6 -5 -1 -6 1 -3 6 11 18 -117 177
-134 167 -5 -3 -7 0 -5 7 7 17 -39 63 -53 54 -5 -3 -9 1 -8 10 0 9 -8 21 -19
28 -10 6 -27 20 -37 31 -9 11 -17 17 -18 13 0 -4 -11 3 -24 15 -38 35 -46 41
-139 95 -48 29 -94 52 -102 52 -7 0 -16 4 -19 9 -3 4 -34 18 -68 30 -35 12
-70 25 -78 28 -17 7 -45 13 -75 16 -11 1 -22 5 -25 8 -11 12 -140 25 -150 15
-7 -7 -10 -6 -10 1 0 8 -31 11 -101 10 -55 -1 -102 -4 -105 -6z m23 -36 c0 -8
-4 -12 -9 -9 -5 3 -6 10 -3 15 9 13 12 11 12 -6z m278 3 c5 4 5 1 1 -6 -6 -10
-11 -10 -22 -1 -8 6 -14 14 -14 16 0 3 6 0 13 -6 8 -6 18 -7 22 -3z m-120 -7
c-9 -8 -36 -10 -30 -2 2 4 11 8 20 8 8 0 13 -3 10 -6z m185 -6 c0 -2 -9 -3
-19 -2 -11 0 -18 5 -15 9 4 6 34 0 34 -7z m405 -235 c3 -6 -1 -7 -9 -4 -18 7
-21 14 -7 14 6 0 13 -4 16 -10z m419 -398 c3 -5 -1 -9 -9 -9 -8 0 -12 4 -9 9
3 4 7 8 9 8 2 0 6 -4 9 -8z m36 -2 c0 -5 -2 -10 -4 -10 -3 0 -8 5 -11 10 -3 6
-1 10 4 10 6 0 11 -4 11 -10z m51 -153 c-10 -9 -11 -8 -5 6 3 10 9 15 12 12 3
-3 0 -11 -7 -18z m13 -25 c3 -5 -1 -9 -9 -9 -8 0 -12 4 -9 9 3 4 7 8 9 8 2 0
6 -4 9 -8z m31 -81 c3 -5 2 -12 -3 -15 -5 -3 -9 1 -9 9 0 17 3 19 12 6z m-79
-23 c3 -4 -1 -5 -10 -4 -8 1 -18 5 -22 8 -3 4 1 5 10 4 8 -1 18 -5 22 -8z m24
-38 c0 -5 -5 -10 -11 -10 -5 0 -7 5 -4 10 3 6 8 10 11 10 2 0 4 -4 4 -10z m76
-55 c-1 -8 -5 -17 -8 -21 -5 -4 -4 16 1 34 3 9 9 -1 7 -13z m-59 -30 c0 -8 -4
-12 -9 -9 -5 3 -6 10 -3 15 9 13 12 11 12 -6z m43 -29 c0 -2 -7 -7 -16 -10 -8
-3 -12 -2 -9 4 6 10 25 14 25 6z m-60 -46 c0 -5 -5 -10 -11 -10 -5 0 -7 5 -4
10 3 6 8 10 11 10 2 0 4 -4 4 -10z m65 0 c3 -6 -1 -7 -9 -4 -18 7 -21 14 -7
14 6 0 13 -4 16 -10z m11 -55 c-1 -8 -5 -17 -8 -21 -5 -4 -4 16 1 34 3 9 9 -1
7 -13z m-105 -12 c13 -16 12 -17 -3 -4 -17 13 -22 21 -14 21 2 0 10 -8 17 -17z
m29 -53 c0 -5 -5 -10 -11 -10 -5 0 -7 5 -4 10 3 6 8 10 11 10 2 0 4 -4 4 -10z
m57 -5 c0 -8 -4 -12 -9 -9 -5 3 -6 10 -3 15 9 13 12 11 12 -6z m43 -36 c0 -5
-4 -9 -8 -9 -5 0 -9 7 -9 15 0 8 4 12 9 9 4 -3 8 -9 8 -15z m-44 -65 c1 -9 0
-13 -4 -10 -3 4 -7 14 -8 22 -1 9 0 13 4 10 3 -4 7 -14 8 -22z m15 -41 c13
-16 12 -17 -3 -4 -17 13 -22 21 -14 21 2 0 10 -8 17 -17z m-13 -124 c9 -12 9
-16 -1 -16 -7 0 -14 9 -14 20 -1 11 -1 18 0 16 2 -2 8 -11 15 -20z m-42 -35
c1 -9 0 -13 -4 -10 -3 4 -7 14 -8 22 -1 9 0 13 4 10 3 -4 7 -14 8 -22z m-116
-8 c0 -2 -7 -7 -16 -10 -8 -3 -12 -2 -9 4 6 10 25 14 25 6z m115 -25 c3 -5 2
-12 -3 -15 -5 -3 -9 1 -9 9 0 17 3 19 12 6z m-35 -35 c0 -3 -4 -8 -10 -11 -5
-3 -10 -1 -10 4 0 6 5 11 10 11 6 0 10 -2 10 -4z"/>
<path d="M1625 2313 c-65 -79 -109 -156 -149 -259 -14 -39 -28 -79 -31 -90 -2
-10 -11 -50 -20 -89 -41 -184 -39 -435 5 -589 36 -128 110 -244 181 -286 47
-28 159 167 189 328 5 31 12 68 15 82 3 14 8 95 10 180 6 213 14 301 31 365
13 51 12 60 -5 111 -37 105 -153 284 -184 284 -6 0 -25 -17 -42 -37z"/>
<path d="M861 2250 l-53 -5 33 -31 c110 -101 184 -210 219 -321 18 -57 22 -98
25 -265 3 -160 8 -212 24 -272 40 -144 96 -231 188 -289 52 -33 157 -68 223
-75 l55 -5 -38 38 c-63 63 -133 208 -152 316 -22 121 -27 353 -10 429 3 14 10
54 16 90 7 36 15 75 20 86 11 31 -29 110 -85 165 -103 102 -284 156 -465 139z"/>
<path d="M2367 2254 c-1 -1 -31 -4 -67 -7 -96 -8 -118 -14 -195 -52 -165 -80
-227 -177 -240 -379 -3 -45 -7 -146 -10 -226 -3 -80 -7 -157 -10 -173 -2 -15
-9 -53 -15 -85 -21 -118 -77 -253 -129 -310 -16 -17 -27 -33 -24 -36 8 -8 113
4 178 20 151 37 250 118 304 248 47 113 59 186 61 364 0 86 3 172 5 191 17
128 82 249 197 365 38 38 67 70 66 71 -4 3 -117 12 -121 9z"/>
<path d="M820 1113 c0 -2 51 -55 113 -116 63 -62 122 -126 132 -143 23 -40 45
-53 102 -61 42 -6 46 -5 39 12 -6 17 -5 18 11 3 17 -14 66 -17 99 -4 15 6 -37
67 -166 196 -70 70 -147 107 -182 89 -12 -7 -27 -5 -45 5 -28 14 -103 28 -103
19z m247 -127 c91 -95 141 -156 126 -155 -4 0 -30 30 -58 66 -27 36 -79 92
-114 124 -35 32 -59 59 -54 59 6 0 51 -42 100 -94z"/>
<path d="M1130 1056 c0 -3 12 -18 26 -33 15 -15 60 -67 101 -115 41 -47 80
-88 87 -91 16 -6 65 3 71 13 6 9 -162 176 -202 199 -29 18 -83 35 -83 27z"/>
<path d="M2730 894 c-99 -26 -199 -111 -345 -294 l-68 -85 31 -3 c67 -7 107
14 163 86 28 37 108 122 176 190 68 67 118 122 111 121 -7 0 -38 -7 -68 -15z"/>
<path d="M795 892 c-11 -2 -24 -8 -29 -12 -13 -13 209 -229 289 -282 39 -25
97 -59 129 -76 l60 -29 125 62 c156 77 226 99 316 99 115 0 187 -11 320 -49
16 -5 36 8 83 52 34 32 62 61 62 65 0 3 -11 3 -24 1 -14 -3 -39 5 -63 20 -65
41 -195 103 -245 117 -77 21 -213 8 -355 -34 -135 -39 -186 -47 -286 -47 -66
0 -67 0 -56 -22 17 -31 30 -42 78 -67 53 -26 147 -28 239 -5 35 9 66 14 69 12
5 -6 -69 -51 -110 -66 -69 -26 -160 -15 -249 30 -23 12 -83 62 -132 111 -50
50 -102 95 -116 100 -39 16 -83 24 -105 20z"/>
<path d="M2551 869 c-77 -23 -163 -99 -329 -293 -50 -58 -51 -35 -1 26 24 29
46 55 49 58 30 28 152 171 149 174 -7 7 -94 -26 -119 -46 -14 -11 -73 -67
-132 -124 -97 -93 -106 -104 -89 -114 11 -5 37 -10 58 -10 22 0 43 -4 49 -10
5 -5 33 -12 61 -15 48 -6 52 -4 74 25 73 96 142 174 216 248 46 46 83 85 83
87 0 7 -31 4 -69 -6z"/>
</g>
</svg>
